# xmcd
#
# Track frame offsets:
#	150
#	12569
#	21672
#	35428
#	49103
#	60588
#	71713
#	85708
#	98589
#	111962
#	124606
#	140590
#	150602
#	163096
#	174696
#	186361
#
# Disc length: 2643
#
# Revision: 3
# Processed by: cddbd v1.5.1PL0 Copyright (c) Steve Scherf et al.
# Submitted via: dBpowerAMP V4.0
# Normalized: r2:DSETVAR1
#
DISCID=de0a5110
DTITLE=Various Artist - Country Superstars - Disc 2
DYEAR=1900
DGENRE=Country
TTITLE0=Frankie Laine - High Noon(Do Not Forsake Me)
TTITLE1=Frankie Laine - Rawhide
TTITLE2=Frankie Laine - Riders In The Sky
TTITLE3=Frankie Laine - Cool Water
TTITLE4=Frankie Laine - Mule Train
TTITLE5=Frankie Laine - North To Alaska
TTITLE6=Frankie Laine - Don't Fence Me In
TTITLE7=Frankie Laine - Cry Of The Wild Goose
TTITLE8=Don Williams - Where Do We Go From Here
TTITLE9=Don Williams - There's Never Been A Time
TTITLE10=Don Williams - Tears
TTITLE11=Don Williams - Take My Hand For A While
TTITLE12=Don Williams - Coming Apart
TTITLE13=Don Williams - Storybook Children
TTITLE14=Don Williams - Follow Me Back To Louisville
TTITLE15=Don Williams - On Her Way To Being A Woman
EXTD=
EXTT0=
EXTT1=
EXTT2=
EXTT3=
EXTT4=
EXTT5=
EXTT6=
EXTT7=
EXTT8=
EXTT9=
EXTT10=
EXTT11=
EXTT12=
EXTT13=
EXTT14=
EXTT15=
PLAYORDER=
